<mxfile host="app.diagrams.net" modified="2025-02-05T00:00:00.000Z" agent="Mozilla/5.0 (Windows)" etag="MFNNetworkDesign" version="14.6.13" type="device">
  <diagram id="diagramMFN" name="MFN Network Design">
    <mxGraphModel dx="1024" dy="768" grid="1" gridSize="10" guides="1" tooltips="1" connect="1" arrows="1" fold="1" page="1" pageScale="1" pageWidth="827" pageHeight="1169" math="0" shadow="0">
      <root>
        <!-- Required Root Cells -->
        <mxCell id="0"/>
        <mxCell id="1" parent="0"/>
        
        <!-- MFN Headend block -->
        <mxCell id="2" value="MFN Headend&#xa;(3 Routers, Cable Modem Router)" style="rounded=1;whiteSpace=wrap;html=1;fillColor=#dae8fc;strokeColor=#6c8ebf;" vertex="1" parent="1">
          <mxGeometry x="300" y="50" width="220" height="80" as="geometry"/>
        </mxCell>
        
        <!-- Cable Modem Router (part of MFN Headend, shown separately for clarity) -->
        <mxCell id="3" value="Cable Modem Router" style="rounded=1;whiteSpace=wrap;html=1;fillColor=#e1d5e7;strokeColor=#9673a6;" vertex="1" parent="1">
          <mxGeometry x="540" y="50" width="180" height="80" as="geometry"/>
        </mxCell>
        
        <!-- Fiber-Optic Backbone Ring -->
        <mxCell id="4" value="Fiber-Optic Backbone (Ring)" style="ellipse;whiteSpace=wrap;html=1;aspect=fixed;fillColor=#fff2cc;strokeColor=#d6b656;" vertex="1" parent="1">
          <mxGeometry x="250" y="180" width="300" height="300" as="geometry"/>
        </mxCell>
        
        <!-- Data Routers on the Fiber Ring -->
        <mxCell id="5" value="Data Router 1" style="rounded=1;whiteSpace=wrap;html=1;fillColor=#d5e8d4;strokeColor=#82b366;" vertex="1" parent="1">
          <mxGeometry x="350" y="180" width="120" height="40" as="geometry"/>
        </mxCell>
        <mxCell id="6" value="Data Router 2" style="rounded=1;whiteSpace=wrap;html=1;fillColor=#d5e8d4;strokeColor=#82b366;" vertex="1" parent="1">
          <mxGeometry x="250" y="350" width="120" height="40" as="geometry"/>
        </mxCell>
        <mxCell id="7" value="Data Router 3" style="rounded=1;whiteSpace=wrap;html=1;fillColor=#d5e8d4;strokeColor=#82b366;" vertex="1" parent="1">
          <mxGeometry x="450" y="350" width="120" height="40" as="geometry"/>
        </mxCell>
        
        <!-- Business Premises connected to Data Router 1 -->
        <mxCell id="8" value="Business Premises&#xa;(Media Converter, 100 Mbps Switch)" style="rounded=1;whiteSpace=wrap;html=1;fillColor=#f8cecc;strokeColor=#b85450;" vertex="1" parent="1">
          <mxGeometry x="350" y="100" width="180" height="60" as="geometry"/>
        </mxCell>
        
        <!-- Hybrid Fiber-Coax Node for Residential Service -->
        <mxCell id="11" value="Hybrid Fiber-Coax Node" style="rounded=1;whiteSpace=wrap;html=1;fillColor=#ffe6cc;strokeColor=#d79b00;" vertex="1" parent="1">
          <mxGeometry x="600" y="400" width="160" height="60" as="geometry"/>
        </mxCell>
        
        <!-- Residential Home connected to the Hybrid Node -->
        <mxCell id="12" value="Residential Home" style="rounded=1;whiteSpace=wrap;html=1;fillColor=#e1f5fe;strokeColor=#039be5;" vertex="1" parent="1">
          <mxGeometry x="600" y="500" width="140" height="60" as="geometry"/>
        </mxCell>
        
        <!-- Wireless Access Point (for future expansion) -->
        <mxCell id="13" value="Wireless Access Point" style="rounded=1;whiteSpace=wrap;html=1;fillColor=#f0f4c3;strokeColor=#afb42b;" vertex="1" parent="1">
          <mxGeometry x="100" y="400" width="160" height="60" as="geometry"/>
        </mxCell>
        
        <!-- Edges/Connections -->
        <!-- MFN Headend to Fiber Ring -->
        <mxCell id="e1" edge="1" parent="1" source="2" target="4" style="edgeStyle=orthogonalEdgeStyle;rounded=0;html=1;strokeColor=#000000;">
          <mxGeometry relative="1" as="geometry"/>
        </mxCell>
        
        <!-- Cable Modem Router to Fiber Ring -->
        <mxCell id="e3" edge="1" parent="1" source="3" target="4" style="edgeStyle=orthogonalEdgeStyle;rounded=0;html=1;strokeColor=#000000;">
          <mxGeometry relative="1" as="geometry"/>
        </mxCell>
        
        <!-- Fiber Ring to Data Routers -->
        <mxCell id="e7" edge="1" parent="1" source="4" target="5" style="edgeStyle=orthogonalEdgeStyle;rounded=0;html=1;strokeColor=#000000;">
          <mxGeometry relative="1" as="geometry"/>
        </mxCell>
        <mxCell id="e8" edge="1" parent="1" source="4" target="6" style="edgeStyle=orthogonalEdgeStyle;rounded=0;html=1;strokeColor=#000000;">
          <mxGeometry relative="1" as="geometry"/>
        </mxCell>
        <mxCell id="e9" edge="1" parent="1" source="4" target="7" style="edgeStyle=orthogonalEdgeStyle;rounded=0;html=1;strokeColor=#000000;">
          <mxGeometry relative="1" as="geometry"/>
        </mxCell>
        
        <!-- Data Router 1 to Business Premises -->
        <mxCell id="e2" edge="1" parent="1" source="5" target="8" style="edgeStyle=orthogonalEdgeStyle;rounded=0;html=1;strokeColor=#000000;">
          <mxGeometry relative="1" as="geometry"/>
        </mxCell>
        
        <!-- Fiber Ring to Hybrid Fiber-Coax Node -->
        <mxCell id="e4" edge="1" parent="1" source="4" target="11" style="edgeStyle=orthogonalEdgeStyle;rounded=0;html=1;strokeColor=#000000;">
          <mxGeometry relative="1" as="geometry"/>
        </mxCell>
        
        <!-- Hybrid Node to Residential Home -->
        <mxCell id="e5" edge="1" parent="1" source="11" target="12" style="edgeStyle=orthogonalEdgeStyle;rounded=0;html=1;strokeColor=#000000;">
          <mxGeometry relative="1" as="geometry"/>
        </mxCell>
        
        <!-- Fiber Ring to Wireless Access Point -->
        <mxCell id="e6" edge="1" parent="1" source="4" target="13" style="edgeStyle=orthogonalEdgeStyle;rounded=0;html=1;strokeColor=#000000;">
          <mxGeometry relative="1" as="geometry"/>
        </mxCell>
        
      </root>
    </mxGraphModel>
  </diagram>
</mxfile>
